<?xml version="1.0" standalone="no"?>
<!DOCTYPE svg PUBLIC "-//W3C//DTD SVG 20010904//EN"
  "http://www.w3.org/TR/2001/REC-SVG-20010904/DTD/svg10.dtd">
<svg width="16" height="16">
  <circle cx="0" cy="0" r="1" fill="none"/>
  <circle cx="1" cy="0" r="1" fill="none"/>
  <circle cx="2" cy="0" r="1" fill="srgba(36,78,144,0)"/>
  <circle cx="3" cy="0" r="1" fill="srgba(35,78,143,0.0352941)"/>
  <circle cx="4" cy="0" r="1" fill="srgba(35,76,141,0.14902)"/>
  <circle cx="5" cy="0" r="1" fill="srgba(34,76,140,0.156863)"/>
  <circle cx="6" cy="0" r="1" fill="srgba(34,76,140,0.156863)"/>
  <circle cx="7" cy="0" r="1" fill="srgba(34,76,140,0.156863)"/>
  <circle cx="8" cy="0" r="1" fill="srgba(34,76,140,0.156863)"/>
  <circle cx="9" cy="0" r="1" fill="srgba(34,76,140,0.156863)"/>
  <circle cx="10" cy="0" r="1" fill="srgba(34,76,140,0.160784)"/>
  <circle cx="11" cy="0" r="1" fill="srgba(32,71,132,0.0980392)"/>
  <circle cx="12" cy="0" r="1" fill="srgba(2,3,4,0.00392157)"/>
  <circle cx="13" cy="0" r="1" fill="srgba(12,26,47,0)"/>
  <circle cx="14" cy="0" r="1" fill="none"/>
  <circle cx="15" cy="0" r="1" fill="none"/>
  <circle cx="0" cy="1" r="1" fill="none"/>
  <circle cx="1" cy="1" r="1" fill="none"/>
  <circle cx="2" cy="1" r="1" fill="srgba(37,82,152,0)"/>
  <circle cx="3" cy="1" r="1" fill="srgba(36,79,146,0.356863)"/>
  <circle cx="4" cy="1" r="1" fill="srgba(36,80,147,0.882353)"/>
  <circle cx="5" cy="1" r="1" fill="srgba(36,80,147,0.886275)"/>
  <circle cx="6" cy="1" r="1" fill="srgba(36,80,147,0.886275)"/>
  <circle cx="7" cy="1" r="1" fill="srgba(36,80,147,0.886275)"/>
  <circle cx="8" cy="1" r="1" fill="srgba(36,79,147,0.886275)"/>
  <circle cx="9" cy="1" r="1" fill="srgba(35,79,147,0.886275)"/>
  <circle cx="10" cy="1" r="1" fill="srgba(36,80,148,0.894118)"/>
  <circle cx="11" cy="1" r="1" fill="srgba(34,75,138,0.705882)"/>
  <circle cx="12" cy="1" r="1" fill="srgba(15,34,62,0.0901961)"/>
  <circle cx="13" cy="1" r="1" fill="srgba(18,41,75,0)"/>
  <circle cx="14" cy="1" r="1" fill="none"/>
  <circle cx="15" cy="1" r="1" fill="none"/>
  <circle cx="0" cy="2" r="1" fill="none"/>
  <circle cx="1" cy="2" r="1" fill="none"/>
  <circle cx="2" cy="2" r="1" fill="srgba(39,86,159,0)"/>
  <circle cx="3" cy="2" r="1" fill="srgba(36,79,145,0.470588)"/>
  <circle cx="4" cy="2" r="1" fill="srgba(35,79,148,1)"/>
  <circle cx="5" cy="2" r="1" fill="srgba(33,78,147,1)"/>
  <circle cx="6" cy="2" r="1" fill="srgba(34,78,147,1)"/>
  <circle cx="7" cy="2" r="1" fill="srgba(34,78,147,1)"/>
  <circle cx="8" cy="2" r="1" fill="srgba(36,80,148,1)"/>
  <circle cx="9" cy="2" r="1" fill="srgba(43,85,151,1)"/>
  <circle cx="10" cy="2" r="1" fill="srgba(35,79,148,1)"/>
  <circle cx="11" cy="2" r="1" fill="srgba(33,73,136,0.866667)"/>
  <circle cx="12" cy="2" r="1" fill="srgba(14,32,58,0.152941)"/>
  <circle cx="13" cy="2" r="1" fill="srgba(18,39,72,0)"/>
  <circle cx="14" cy="2" r="1" fill="none"/>
  <circle cx="15" cy="2" r="1" fill="none"/>
  <circle cx="0" cy="3" r="1" fill="none"/>
  <circle cx="1" cy="3" r="1" fill="none"/>
  <circle cx="2" cy="3" r="1" fill="srgba(57,100,167,0)"/>
  <circle cx="3" cy="3" r="1" fill="srgba(46,87,150,0.466667)"/>
  <circle cx="4" cy="3" r="1" fill="srgba(107,139,185,1)"/>
  <circle cx="5" cy="3" r="1" fill="srgba(87,123,175,0.996078)"/>
  <circle cx="6" cy="3" r="1" fill="srgba(66,105,164,1)"/>
  <circle cx="7" cy="3" r="1" fill="srgba(73,111,167,0.996078)"/>
  <circle cx="8" cy="3" r="1" fill="srgba(122,152,193,0.996078)"/>
  <circle cx="9" cy="3" r="1" fill="srgba(151,176,209,0.996078)"/>
  <circle cx="10" cy="3" r="1" fill="srgba(64,103,163,1)"/>
  <circle cx="11" cy="3" r="1" fill="srgba(35,75,137,0.866667)"/>
  <circle cx="12" cy="3" r="1" fill="srgba(13,31,57,0.152941)"/>
  <circle cx="13" cy="3" r="1" fill="srgba(18,39,72,0)"/>
  <circle cx="14" cy="3" r="1" fill="none"/>
  <circle cx="15" cy="3" r="1" fill="none"/>
  <circle cx="0" cy="4" r="1" fill="none"/>
  <circle cx="1" cy="4" r="1" fill="srgba(20,44,81,0)"/>
  <circle cx="2" cy="4" r="1" fill="srgba(60,104,170,0)"/>
  <circle cx="3" cy="4" r="1" fill="srgba(45,86,150,0.478431)"/>
  <circle cx="4" cy="4" r="1" fill="srgba(155,180,211,1)"/>
  <circle cx="5" cy="4" r="1" fill="srgba(193,212,232,1)"/>
  <circle cx="6" cy="4" r="1" fill="srgba(186,206,228,1)"/>
  <circle cx="7" cy="4" r="1" fill="srgba(204,221,238,1)"/>
  <circle cx="8" cy="4" r="1" fill="srgba(209,225,240,1)"/>
  <circle cx="9" cy="4" r="1" fill="srgba(199,217,235,1)"/>
  <circle cx="10" cy="4" r="1" fill="srgba(169,192,219,1)"/>
  <circle cx="11" cy="4" r="1" fill="srgba(68,103,155,0.870588)"/>
  <circle cx="12" cy="4" r="1" fill="srgba(3,24,56,0.156863)"/>
  <circle cx="13" cy="4" r="1" fill="srgba(18,41,77,0)"/>
  <circle cx="14" cy="4" r="1" fill="none"/>
  <circle cx="15" cy="4" r="1" fill="none"/>
  <circle cx="0" cy="5" r="1" fill="none"/>
  <circle cx="1" cy="5" r="1" fill="srgba(34,76,141,0)"/>
  <circle cx="2" cy="5" r="1" fill="srgba(15,60,130,0.054902)"/>
  <circle cx="3" cy="5" r="1" fill="srgba(63,102,161,0.729412)"/>
  <circle cx="4" cy="5" r="1" fill="srgba(114,144,188,1)"/>
  <circle cx="5" cy="5" r="1" fill="srgba(131,157,195,0.996078)"/>
  <circle cx="6" cy="5" r="1" fill="srgba(115,145,188,0.996078)"/>
  <circle cx="7" cy="5" r="1" fill="srgba(178,199,223,1)"/>
  <circle cx="8" cy="5" r="1" fill="srgba(129,158,197,1)"/>
  <circle cx="9" cy="5" r="1" fill="srgba(120,149,191,1)"/>
  <circle cx="10" cy="5" r="1" fill="srgba(131,158,196,1)"/>
  <circle cx="11" cy="5" r="1" fill="srgba(91,123,172,0.964706)"/>
  <circle cx="12" cy="5" r="1" fill="srgba(29,62,112,0.364706)"/>
  <circle cx="13" cy="5" r="1" fill="srgba(88,179,255,0)"/>
  <circle cx="14" cy="5" r="1" fill="none"/>
  <circle cx="15" cy="5" r="1" fill="none"/>
  <circle cx="0" cy="6" r="1" fill="none"/>
  <circle cx="1" cy="6" r="1" fill="srgba(34,76,140,0)"/>
  <circle cx="2" cy="6" r="1" fill="srgba(1,48,122,0.105882)"/>
  <circle cx="3" cy="6" r="1" fill="srgba(115,144,187,0.858824)"/>
  <circle cx="4" cy="6" r="1" fill="srgba(238,243,249,1)"/>
  <circle cx="5" cy="6" r="1" fill="white"/>
  <circle cx="6" cy="6" r="1" fill="srgba(169,186,213,1)"/>
  <circle cx="7" cy="6" r="1" fill="srgba(89,124,176,0.996078)"/>
  <circle cx="8" cy="6" r="1" fill="srgba(104,136,183,1)"/>
  <circle cx="9" cy="6" r="1" fill="srgba(231,238,245,1)"/>
  <circle cx="10" cy="6" r="1" fill="white"/>
  <circle cx="11" cy="6" r="1" fill="srgba(186,200,221,1)"/>
  <circle cx="12" cy="6" r="1" fill="srgba(35,67,116,0.521569)"/>
  <circle cx="13" cy="6" r="1" fill="srgba(0,0,0,0.00392157)"/>
  <circle cx="14" cy="6" r="1" fill="none"/>
  <circle cx="15" cy="6" r="1" fill="none"/>
  <circle cx="0" cy="7" r="1" fill="none"/>
  <circle cx="1" cy="7" r="1" fill="srgba(34,74,137,0)"/>
  <circle cx="2" cy="7" r="1" fill="srgba(5,51,122,0.0941176)"/>
  <circle cx="3" cy="7" r="1" fill="srgba(100,130,178,0.843137)"/>
  <circle cx="4" cy="7" r="1" fill="srgba(193,206,225,1)"/>
  <circle cx="5" cy="7" r="1" fill="srgba(199,210,227,1)"/>
  <circle cx="6" cy="7" r="1" fill="srgba(139,162,198,1)"/>
  <circle cx="7" cy="7" r="1" fill="srgba(136,164,201,1)"/>
  <circle cx="8" cy="7" r="1" fill="srgba(114,144,188,1)"/>
  <circle cx="9" cy="7" r="1" fill="srgba(187,201,222,1)"/>
  <circle cx="10" cy="7" r="1" fill="srgba(199,210,228,1)"/>
  <circle cx="11" cy="7" r="1" fill="srgba(146,168,201,1)"/>
  <circle cx="12" cy="7" r="1" fill="srgba(32,63,111,0.509804)"/>
  <circle cx="13" cy="7" r="1" fill="srgba(0,0,0,0.00392157)"/>
  <circle cx="14" cy="7" r="1" fill="none"/>
  <circle cx="15" cy="7" r="1" fill="none"/>
  <circle cx="0" cy="8" r="1" fill="none"/>
  <circle cx="1" cy="8" r="1" fill="srgba(27,59,108,0)"/>
  <circle cx="2" cy="8" r="1" fill="srgba(0,20,59,0.0156863)"/>
  <circle cx="3" cy="8" r="1" fill="srgba(44,84,146,0.592157)"/>
  <circle cx="4" cy="8" r="1" fill="srgba(118,148,191,1)"/>
  <circle cx="5" cy="8" r="1" fill="srgba(146,172,206,1)"/>
  <circle cx="6" cy="8" r="1" fill="srgba(152,177,210,1)"/>
  <circle cx="7" cy="8" r="1" fill="srgba(206,222,238,1)"/>
  <circle cx="8" cy="8" r="1" fill="srgba(172,194,220,1)"/>
  <circle cx="9" cy="8" r="1" fill="srgba(143,169,205,1)"/>
  <circle cx="10" cy="8" r="1" fill="srgba(142,168,204,1)"/>
  <circle cx="11" cy="8" r="1" fill="srgba(69,104,157,0.921569)"/>
  <circle cx="12" cy="8" r="1" fill="srgba(13,35,69,0.294118)"/>
  <circle cx="13" cy="8" r="1" fill="srgba(85,186,255,0)"/>
  <circle cx="14" cy="8" r="1" fill="none"/>
  <circle cx="15" cy="8" r="1" fill="none"/>
  <circle cx="0" cy="9" r="1" fill="none"/>
  <circle cx="1" cy="9" r="1" fill="none"/>
  <circle cx="2" cy="9" r="1" fill="srgba(64,105,167,0)"/>
  <circle cx="3" cy="9" r="1" fill="srgba(50,91,153,0.466667)"/>
  <circle cx="4" cy="9" r="1" fill="srgba(172,194,220,1)"/>
  <circle cx="5" cy="9" r="1" fill="srgba(221,235,247,1)"/>
  <circle cx="6" cy="9" r="1" fill="srgba(219,233,245,1)"/>
  <circle cx="7" cy="9" r="1" fill="srgba(217,232,244,1)"/>
  <circle cx="8" cy="9" r="1" fill="srgba(218,233,245,1)"/>
  <circle cx="9" cy="9" r="1" fill="srgba(219,233,246,1)"/>
  <circle cx="10" cy="9" r="1" fill="srgba(213,228,243,1)"/>
  <circle cx="11" cy="9" r="1" fill="srgba(91,122,167,0.866667)"/>
  <circle cx="12" cy="9" r="1" fill="srgba(0,15,48,0.152941)"/>
  <circle cx="13" cy="9" r="1" fill="srgba(17,39,72,0)"/>
  <circle cx="14" cy="9" r="1" fill="none"/>
  <circle cx="15" cy="9" r="1" fill="none"/>
  <circle cx="0" cy="10" r="1" fill="none"/>
  <circle cx="1" cy="10" r="1" fill="none"/>
  <circle cx="2" cy="10" r="1" fill="srgba(67,110,174,0)"/>
  <circle cx="3" cy="10" r="1" fill="srgba(50,90,152,0.470588)"/>
  <circle cx="4" cy="10" r="1" fill="srgba(172,194,220,1)"/>
  <circle cx="5" cy="10" r="1" fill="srgba(221,235,247,1)"/>
  <circle cx="6" cy="10" r="1" fill="srgba(219,233,245,1)"/>
  <circle cx="7" cy="10" r="1" fill="srgba(219,233,245,1)"/>
  <circle cx="8" cy="10" r="1" fill="srgba(219,233,245,1)"/>
  <circle cx="9" cy="10" r="1" fill="srgba(219,233,246,1)"/>
  <circle cx="10" cy="10" r="1" fill="srgba(213,228,243,1)"/>
  <circle cx="11" cy="10" r="1" fill="srgba(92,123,167,0.866667)"/>
  <circle cx="12" cy="10" r="1" fill="srgba(0,15,48,0.152941)"/>
  <circle cx="13" cy="10" r="1" fill="srgba(17,39,72,0)"/>
  <circle cx="14" cy="10" r="1" fill="none"/>
  <circle cx="15" cy="10" r="1" fill="none"/>
  <circle cx="0" cy="11" r="1" fill="none"/>
  <circle cx="1" cy="11" r="1" fill="none"/>
  <circle cx="2" cy="11" r="1" fill="srgba(59,103,170,0)"/>
  <circle cx="3" cy="11" r="1" fill="srgba(46,87,150,0.470588)"/>
  <circle cx="4" cy="11" r="1" fill="srgba(137,164,201,1)"/>
  <circle cx="5" cy="11" r="1" fill="srgba(174,195,221,1)"/>
  <circle cx="6" cy="11" r="1" fill="srgba(172,194,220,1)"/>
  <circle cx="7" cy="11" r="1" fill="srgba(170,192,219,1)"/>
  <circle cx="8" cy="11" r="1" fill="srgba(171,193,220,1)"/>
  <circle cx="9" cy="11" r="1" fill="srgba(172,194,220,1)"/>
  <circle cx="10" cy="11" r="1" fill="srgba(167,190,218,1)"/>
  <circle cx="11" cy="11" r="1" fill="srgba(76,110,159,0.866667)"/>
  <circle cx="12" cy="11" r="1" fill="srgba(0,20,50,0.152941)"/>
  <circle cx="13" cy="11" r="1" fill="srgba(18,39,72,0)"/>
  <circle cx="14" cy="11" r="1" fill="none"/>
  <circle cx="15" cy="11" r="1" fill="none"/>
  <circle cx="0" cy="12" r="1" fill="none"/>
  <circle cx="1" cy="12" r="1" fill="none"/>
  <circle cx="2" cy="12" r="1" fill="srgba(40,87,160,0)"/>
  <circle cx="3" cy="12" r="1" fill="srgba(36,79,145,0.470588)"/>
  <circle cx="4" cy="12" r="1" fill="srgba(41,84,151,1)"/>
  <circle cx="5" cy="12" r="1" fill="srgba(43,85,152,1)"/>
  <circle cx="6" cy="12" r="1" fill="srgba(51,92,155,1)"/>
  <circle cx="7" cy="12" r="1" fill="srgba(142,165,200,0.996078)"/>
  <circle cx="8" cy="12" r="1" fill="srgba(85,119,172,1)"/>
  <circle cx="9" cy="12" r="1" fill="srgba(41,84,151,1)"/>
  <circle cx="10" cy="12" r="1" fill="srgba(43,86,152,1)"/>
  <circle cx="11" cy="12" r="1" fill="srgba(35,75,137,0.866667)"/>
  <circle cx="12" cy="12" r="1" fill="srgba(13,31,58,0.152941)"/>
  <circle cx="13" cy="12" r="1" fill="srgba(18,39,72,0)"/>
  <circle cx="14" cy="12" r="1" fill="none"/>
  <circle cx="15" cy="12" r="1" fill="none"/>
  <circle cx="0" cy="13" r="1" fill="none"/>
  <circle cx="1" cy="13" r="1" fill="none"/>
  <circle cx="2" cy="13" r="1" fill="srgba(38,84,155,0)"/>
  <circle cx="3" cy="13" r="1" fill="srgba(35,77,142,0.419608)"/>
  <circle cx="4" cy="13" r="1" fill="srgba(35,78,145,0.988235)"/>
  <circle cx="5" cy="13" r="1" fill="srgba(34,78,145,0.988235)"/>
  <circle cx="6" cy="13" r="1" fill="srgba(45,86,150,0.988235)"/>
  <circle cx="7" cy="13" r="1" fill="srgba(159,177,205,0.984314)"/>
  <circle cx="8" cy="13" r="1" fill="srgba(88,121,171,0.984314)"/>
  <circle cx="9" cy="13" r="1" fill="srgba(32,76,144,0.988235)"/>
  <circle cx="10" cy="13" r="1" fill="srgba(35,78,145,0.996078)"/>
  <circle cx="11" cy="13" r="1" fill="srgba(32,71,131,0.835294)"/>
  <circle cx="12" cy="13" r="1" fill="srgba(12,27,50,0.137255)"/>
  <circle cx="13" cy="13" r="1" fill="srgba(15,34,62,0)"/>
  <circle cx="14" cy="13" r="1" fill="none"/>
  <circle cx="15" cy="13" r="1" fill="none"/>
  <circle cx="0" cy="14" r="1" fill="none"/>
  <circle cx="1" cy="14" r="1" fill="none"/>
  <circle cx="2" cy="14" r="1" fill="srgba(29,64,118,0)"/>
  <circle cx="3" cy="14" r="1" fill="srgba(27,59,108,0.0980392)"/>
  <circle cx="4" cy="14" r="1" fill="srgba(25,56,103,0.356863)"/>
  <circle cx="5" cy="14" r="1" fill="srgba(24,53,99,0.392157)"/>
  <circle cx="6" cy="14" r="1" fill="srgba(24,53,99,0.388235)"/>
  <circle cx="7" cy="14" r="1" fill="srgba(30,58,101,0.388235)"/>
  <circle cx="8" cy="14" r="1" fill="srgba(25,54,99,0.388235)"/>
  <circle cx="9" cy="14" r="1" fill="srgba(24,53,99,0.388235)"/>
  <circle cx="10" cy="14" r="1" fill="srgba(24,54,99,0.392157)"/>
  <circle cx="11" cy="14" r="1" fill="srgba(20,44,81,0.294118)"/>
  <circle cx="12" cy="14" r="1" fill="srgba(3,6,10,0.0392157)"/>
  <circle cx="13" cy="14" r="1" fill="srgba(5,10,18,0)"/>
  <circle cx="14" cy="14" r="1" fill="none"/>
  <circle cx="15" cy="14" r="1" fill="none"/>
  <circle cx="0" cy="15" r="1" fill="none"/>
  <circle cx="1" cy="15" r="1" fill="none"/>
  <circle cx="2" cy="15" r="1" fill="none"/>
  <circle cx="3" cy="15" r="1" fill="none"/>
  <circle cx="4" cy="15" r="1" fill="none"/>
  <circle cx="5" cy="15" r="1" fill="none"/>
  <circle cx="6" cy="15" r="1" fill="none"/>
  <circle cx="7" cy="15" r="1" fill="none"/>
  <circle cx="8" cy="15" r="1" fill="none"/>
  <circle cx="9" cy="15" r="1" fill="none"/>
  <circle cx="10" cy="15" r="1" fill="none"/>
  <circle cx="11" cy="15" r="1" fill="none"/>
  <circle cx="12" cy="15" r="1" fill="none"/>
  <circle cx="13" cy="15" r="1" fill="none"/>
  <circle cx="14" cy="15" r="1" fill="none"/>
  <circle cx="15" cy="15" r="1" fill="none"/>
</svg>
